<?xml version="1.0" encoding="UTF-8"?>
<svg xmlns="http://www.w3.org/2000/svg" version="1.1" width="250" height="250" viewBox="0 0 250 250"><rect x="0" y="0" width="250" height="250" fill="#ffffff"/><g transform="scale(11.905)"><g transform="translate(0,0)"><path fill-rule="evenodd" d="M9 0L9 1L8 1L8 2L9 2L9 1L11 1L11 0ZM12 0L12 1L13 1L13 0ZM10 2L10 3L8 3L8 4L9 4L9 5L8 5L8 7L9 7L9 8L6 8L6 9L7 9L7 10L6 10L6 11L7 11L7 12L5 12L5 10L2 10L2 9L5 9L5 8L0 8L0 9L1 9L1 10L0 10L0 11L1 11L1 12L0 12L0 13L2 13L2 12L3 12L3 13L7 13L7 12L8 12L8 15L9 15L9 16L8 16L8 21L9 21L9 20L10 20L10 21L16 21L16 18L17 18L17 20L18 20L18 21L19 21L19 20L18 20L18 19L19 19L19 18L18 18L18 17L21 17L21 16L19 16L19 15L16 15L16 14L18 14L18 13L16 13L16 14L15 14L15 15L14 15L14 14L13 14L13 12L12 12L12 13L9 13L9 11L10 11L10 12L11 12L11 11L12 11L12 10L15 10L15 11L14 11L14 12L19 12L19 14L21 14L21 12L20 12L20 11L21 11L21 9L20 9L20 8L19 8L19 11L16 11L16 10L18 10L18 8L17 8L17 9L16 9L16 8L15 8L15 9L14 9L14 8L13 8L13 9L12 9L12 7L13 7L13 6L12 6L12 5L13 5L13 4L12 4L12 3L13 3L13 2ZM11 4L11 5L10 5L10 6L9 6L9 7L10 7L10 9L8 9L8 11L9 11L9 10L10 10L10 9L11 9L11 7L12 7L12 6L11 6L11 5L12 5L12 4ZM10 6L10 7L11 7L11 6ZM1 10L1 11L2 11L2 10ZM3 11L3 12L4 12L4 11ZM9 14L9 15L12 15L12 16L10 16L10 17L9 17L9 18L10 18L10 19L11 19L11 20L14 20L14 19L15 19L15 18L14 18L14 17L18 17L18 16L16 16L16 15L15 15L15 16L14 16L14 15L12 15L12 14ZM12 16L12 18L13 18L13 16ZM10 17L10 18L11 18L11 17ZM20 19L20 20L21 20L21 19ZM0 0L0 7L7 7L7 0ZM1 1L1 6L6 6L6 1ZM2 2L2 5L5 5L5 2ZM14 0L14 7L21 7L21 0ZM15 1L15 6L20 6L20 1ZM16 2L16 5L19 5L19 2ZM0 14L0 21L7 21L7 14ZM1 15L1 20L6 20L6 15ZM2 16L2 19L5 19L5 16Z" fill="#000000"/></g></g></svg>
